<?xml version="1.0" standalone="no"?>
<!DOCTYPE svg PUBLIC "-//W3C//DTD SVG 20010904//EN"
 "http://www.w3.org/TR/2001/REC-SVG-20010904/DTD/svg10.dtd">
<svg version="1.0" xmlns="http://www.w3.org/2000/svg"
 width="881.000000pt" height="235.000000pt" viewBox="0 0 881.000000 235.000000"
 preserveAspectRatio="xMidYMid meet">

<g transform="translate(0.000000,235.000000) scale(0.100000,-0.100000)"
fill="#000000" stroke="none">
<path d="M0 1175 l0 -1175 4405 0 4405 0 0 1175 0 1175 -4405 0 -4405 0 0
-1175z m3493 29 c12 -12 -6 -34 -29 -34 -24 0 -24 -2 -24 -90 0 -83 -1 -90
-20 -90 -19 0 -20 7 -20 90 0 88 0 90 -24 90 -23 0 -41 22 -29 34 8 8 138 8
146 0z m67 -105 c0 -100 -2 -110 -17 -107 -15 3 -18 17 -21 97 -3 104 0 121
23 121 13 0 15 -18 15 -111z m160 91 c0 -17 -7 -20 -40 -20 -36 0 -40 -2 -40
-25 0 -22 4 -25 35 -25 28 0 35 -4 35 -20 0 -16 -7 -20 -35 -20 -31 0 -35 -3
-35 -25 0 -22 4 -25 40 -25 33 0 40 -3 40 -20 0 -18 -7 -20 -60 -20 l-60 0 0
103 c0 57 3 107 7 110 3 4 30 7 60 7 46 0 53 -2 53 -20z m125 -58 l44 -65 3
69 c2 56 6 69 21 72 15 3 17 -7 17 -107 0 -100 -2 -111 -18 -111 -11 0 -34 26
-62 70 l-45 69 -5 -67 c-4 -53 -9 -67 -22 -70 -16 -3 -18 7 -18 101 0 57 3
106 6 110 13 13 37 -9 79 -71z m245 56 c0 -14 -8 -18 -40 -18 -36 0 -40 -2
-40 -25 0 -22 4 -25 35 -25 28 0 35 -4 35 -20 0 -16 -7 -20 -35 -20 -31 0 -35
-3 -35 -25 0 -22 4 -25 40 -25 33 0 40 -3 40 -20 0 -18 -7 -20 -60 -20 l-60 0
0 103 c0 57 3 106 6 110 3 3 30 5 60 5 45 -1 54 -4 54 -20z m256 -78 c18 -52
33 -101 34 -107 0 -20 -28 -15 -40 7 -16 29 -82 28 -102 -2 -9 -13 -20 -19
-30 -15 -14 5 -12 18 18 99 19 51 36 99 39 106 3 7 15 12 26 10 17 -2 28 -22
55 -98z m104 10 l0 -90 35 0 c28 0 35 -4 35 -20 0 -18 -7 -20 -55 -20 l-55 0
0 103 c0 105 3 117 27 117 10 0 13 -22 13 -90z m269 52 l24 -27 -22 -3 c-12
-2 -31 4 -40 12 -42 38 -105 4 -103 -56 1 -56 69 -89 106 -52 25 24 19 34 -19
34 -24 0 -35 5 -35 15 0 12 13 15 60 15 50 0 60 -3 60 -17 0 -37 -38 -82 -81
-94 -59 -18 -108 8 -129 69 -14 40 -13 45 5 80 11 20 31 42 45 49 37 19 100 7
129 -25z m92 -27 c-3 -83 10 -115 49 -115 34 0 39 10 42 110 3 53 6 65 21 68
15 3 17 -6 17 -83 0 -78 -2 -88 -25 -110 -41 -42 -116 -27 -135 28 -11 34 -14
150 -3 161 4 4 14 5 22 4 11 -2 14 -17 12 -63z m250 -2 l44 -67 3 61 c2 51 6
62 23 66 27 7 30 -5 27 -114 -3 -86 -5 -94 -23 -94 -13 0 -35 23 -67 69 l-48
70 0 -72 c0 -65 -2 -72 -20 -72 -19 0 -20 7 -20 103 0 57 3 107 7 110 16 17
34 2 74 -60z m267 -16 c46 -121 48 -137 24 -137 -11 0 -22 8 -25 20 -4 16 -14
20 -50 20 -36 0 -46 -4 -50 -20 -3 -12 -14 -20 -27 -20 -17 0 -21 4 -15 18 4
9 17 46 30 82 38 108 42 116 63 117 16 1 26 -14 50 -80z m284 56 c42 -38 6
-103 -57 -103 -35 0 -35 0 -35 -45 0 -38 -3 -45 -20 -45 -19 0 -20 7 -20 104
0 91 2 105 18 109 31 8 96 -3 114 -20z m169 12 c33 -21 28 -87 -8 -108 -11 -7
-10 -14 7 -41 25 -41 25 -56 2 -56 -10 0 -27 18 -42 45 -14 25 -28 45 -32 45
-4 0 -8 -19 -10 -42 -2 -35 -7 -43 -23 -43 -19 0 -20 7 -21 95 0 52 1 100 3
106 4 12 104 11 124 -1z m179 -7 c0 -14 -8 -18 -40 -18 -36 0 -40 -3 -40 -24
0 -21 5 -25 38 -28 25 -2 37 -8 37 -18 0 -10 -12 -16 -37 -18 -33 -3 -38 -7
-38 -28 0 -21 4 -24 40 -24 34 0 40 -3 40 -20 0 -19 -5 -21 -57 -18 l-58 3 -3
94 c-1 52 -1 100 2 107 3 8 24 12 60 11 46 -1 56 -5 56 -19z m172 12 c32 -9
58 -33 58 -54 0 -11 -35 -5 -54 9 -67 51 -145 -46 -85 -106 26 -26 76 -22 97
9 14 22 14 22 -27 22 -30 0 -41 4 -41 15 0 12 13 15 60 15 53 0 60 -2 60 -20
0 -59 -63 -107 -125 -96 -74 14 -110 111 -64 170 34 44 63 52 121 36z m138
-70 c0 -87 5 -100 41 -100 38 0 49 24 49 110 0 63 2 71 18 68 14 -3 17 -15 17
-87 0 -78 -1 -84 -28 -107 -37 -31 -81 -31 -112 1 -22 21 -25 33 -25 104 0 54
4 81 13 84 23 8 27 -4 27 -73z m249 7 l46 -70 3 64 c3 57 12 78 35 79 4 0 7
-49 7 -110 0 -100 -2 -110 -19 -110 -11 0 -35 25 -65 70 -25 39 -47 70 -49 70
-1 0 -2 -30 -2 -67 0 -61 -2 -68 -20 -68 -18 0 -20 8 -23 94 -1 52 -1 100 2
106 11 28 41 8 85 -58z m269 51 c3 -14 -3 -18 -28 -18 l-31 0 2 -87 c2 -81 0
-88 -17 -88 -17 0 -19 9 -22 88 -3 85 -3 87 -27 87 -23 0 -34 18 -20 32 3 3
36 5 73 4 55 -1 67 -4 70 -18z m173 -86 c20 -56 32 -105 27 -108 -14 -9 -38 4
-38 21 0 11 -11 15 -46 15 -37 0 -47 -4 -51 -20 -5 -21 -43 -29 -43 -9 0 18
60 182 72 196 24 30 43 8 79 -95z m176 87 c32 -27 4 -109 -39 -109 -10 0 -18
-4 -18 -10 0 -5 -7 -10 -15 -10 -8 0 -15 7 -15 15 0 8 -1 18 -2 22 -2 4 12 11
30 15 25 7 32 14 32 33 0 20 -5 25 -25 25 -14 0 -28 -7 -31 -15 -7 -17 -44
-21 -44 -5 0 6 12 22 26 37 20 20 31 24 56 19 17 -3 37 -11 45 -17z m-49 -172
c4 -20 -25 -34 -40 -19 -15 15 -1 44 19 40 10 -2 19 -11 21 -21z"/>
<path d="M4273 1105 c-11 -34 -11 -35 18 -35 27 0 28 1 17 28 -19 44 -24 45
-35 7z"/>
<path d="M5263 1105 c-11 -34 -11 -35 18 -35 27 0 28 1 17 28 -19 44 -24 45
-35 7z"/>
<path d="M5520 1140 c0 -25 4 -30 24 -30 13 0 29 6 35 14 18 22 2 46 -30 46
-26 0 -29 -4 -29 -30z"/>
<path d="M5700 1140 c0 -28 3 -31 28 -28 21 2 27 8 27 28 0 20 -6 26 -27 28
-25 3 -28 0 -28 -28z"/>
<path d="M6888 1110 c-12 -29 -12 -36 -1 -38 33 -8 41 2 28 38 l-12 35 -15
-35z"/>
</g>
</svg>
