<?xml version="1.0" standalone="no"?>
<!DOCTYPE svg PUBLIC "-//W3C//DTD SVG 20010904//EN"
 "http://www.w3.org/TR/2001/REC-SVG-20010904/DTD/svg10.dtd">
<svg version="1.0" xmlns="http://www.w3.org/2000/svg"
 width="512.000000pt" height="512.000000pt" viewBox="0 0 512.000000 512.000000"
 preserveAspectRatio="xMidYMid meet">

<g transform="translate(0.000000,512.000000) scale(0.100000,-0.100000)"
fill="#000000" stroke="none">
<path d="M765 5114 c-123 -26 -193 -66 -290 -163 l-70 -71 743 -743 743 -742
74 79 c122 131 160 225 153 374 -3 76 -9 99 -42 168 -36 77 -48 90 -509 550
-353 351 -485 477 -524 497 -80 42 -207 65 -278 51z"/>
<path d="M2799 5099 c-43 -26 -79 -84 -79 -128 0 -43 32 -104 67 -126 21 -14
58 -21 153 -27 294 -19 497 -68 745 -181 521 -237 930 -725 1070 -1277 35
-136 54 -267 62 -407 5 -98 10 -129 27 -159 56 -98 195 -97 254 2 22 37 23 45
18 174 -23 549 -245 1062 -630 1459 -412 424 -943 663 -1525 687 -117 5 -129
4 -162 -17z"/>
<path d="M182 4626 c-60 -102 -120 -279 -148 -436 -124 -708 117 -1655 612
-2406 436 -663 1065 -1177 1824 -1492 781 -323 1609 -381 2088 -146 50 25 92
49 92 52 0 4 -334 341 -742 749 l-743 742 -55 -19 c-112 -39 -277 -20 -378 43
-58 37 -958 945 -1005 1014 -20 30 -45 80 -54 112 -21 71 -21 200 1 261 9 25
16 52 16 60 0 8 -335 350 -743 758 l-744 744 -21 -36z"/>
<path d="M2799 4499 c-43 -26 -79 -84 -79 -128 0 -42 32 -104 67 -126 19 -13
58 -21 128 -26 384 -31 659 -151 906 -398 242 -243 374 -539 396 -888 4 -77
11 -111 27 -139 56 -98 195 -97 254 2 22 36 23 46 17 149 -7 140 -20 227 -52
344 -105 391 -339 722 -670 944 -260 175 -532 265 -848 282 -101 6 -113 4
-146 -16z"/>
<path d="M2799 3899 c-43 -26 -79 -84 -79 -128 0 -42 32 -104 66 -126 18 -12
60 -21 118 -26 125 -12 196 -32 306 -86 80 -39 109 -61 186 -138 81 -80 98
-103 142 -195 57 -120 71 -170 79 -286 7 -97 31 -148 83 -175 105 -56 219 21
220 149 0 131 -45 311 -111 446 -166 334 -506 560 -878 582 -87 5 -100 3 -132
-17z"/>
<path d="M2799 3298 c-44 -25 -79 -83 -79 -129 1 -76 74 -149 148 -149 75 0
152 -76 152 -151 1 -84 78 -153 161 -146 59 5 100 34 124 87 17 37 17 50 8
115 -28 198 -178 354 -369 385 -84 14 -104 12 -145 -12z"/>
<path d="M3695 2095 c-80 -25 -144 -65 -221 -139 l-79 -75 743 -743 743 -743
80 83 c161 166 198 341 113 534 -25 58 -66 101 -488 526 -254 255 -485 479
-515 499 -76 51 -155 73 -254 72 -45 -1 -100 -7 -122 -14z"/>
</g>
</svg>
